<svg width="619" height="1342" viewBox="0 0 619 1342" fill="none" xmlns="http://www.w3.org/2000/svg">
<g clip-path="url(#clip0_305_61)">
<rect width="619" height="1342" fill="white"/>
<g clip-path="url(#clip1_305_61)">
<rect width="1935" height="2109" transform="translate(-658 -131)" fill="#52A3BD"/>
<g style="mix-blend-mode:screen">
<path d="M1288 1677.69C1063.74 1720.75 613.471 1760.29 606.42 1573.95C599.608 1393.92 144.969 955.795 -104.539 738.626C-55.5746 731.29 97.5851 727.97 318.511 773.382C539.437 818.793 1056.89 1395.18 1288 1677.69Z" fill="#1A2E30"/>
</g>
<g style="mix-blend-mode:screen">
<path d="M1069.99 2075.93C854.245 2001.1 444.527 1810.2 531.592 1645.3C615.708 1485.98 441.042 879.235 333.546 566.408C379.618 584.537 513.918 658.242 682.54 808.032C851.162 957.823 1011.1 1715.71 1069.99 2075.93Z" fill="#1A2E30"/>
</g>
<g style="mix-blend-mode:screen">
<path d="M1515.69 1146.58C1387.57 1335.6 1097.13 1681.95 960.384 1555.18C828.267 1432.69 196.987 1444.37 -133.003 1467.24C-103.568 1427.43 2.38526 1316.78 190.714 1192.67C379.043 1068.56 1152.5 1110.23 1515.69 1146.58Z" fill="#1A2E30"/>
</g>
<g style="mix-blend-mode:luminosity">
<path d="M1016 1352.84C867.498 1381.34 703.917 1364.84 584.5 1396.12C454.843 1430.08 259.084 874.949 93.8605 731.187C126.285 726.331 227.707 724.133 374.004 754.195C520.301 784.256 862.959 1165.81 1016 1352.84Z" fill="#D9D9D9"/>
</g>
</g>
</g>
<defs>
<clipPath id="clip0_305_61">
<rect width="619" height="1342" fill="white"/>
</clipPath>
<clipPath id="clip1_305_61">
<rect width="1935" height="2109" fill="white" transform="translate(-658 -131)"/>
</clipPath>
</defs>
</svg>
