<svg width="1440" height="1024" viewBox="0 0 1440 1024" fill="none" xmlns="http://www.w3.org/2000/svg">
<g clip-path="url(#clip0_141_103)">
<rect width="1440" height="1024" fill="#52A3BD"/>
<g style="mix-blend-mode:screen">
<path d="M2000 1368.07C1775.74 1411.14 1325.47 1450.68 1318.42 1264.33C1311.61 1084.3 856.969 646.177 607.461 429.009C656.425 421.672 809.585 418.353 1030.51 463.764C1251.44 509.175 1768.89 1085.56 2000 1368.07Z" fill="#1A2E30"/>
</g>
<g style="mix-blend-mode:screen">
<path d="M1781.99 1766.31C1566.24 1691.48 1156.53 1500.58 1243.59 1335.68C1327.71 1176.37 1153.04 569.618 1045.55 256.791C1091.62 274.919 1225.92 348.624 1394.54 498.415C1563.16 648.205 1723.1 1406.09 1781.99 1766.31Z" fill="#1A2E30"/>
</g>
<g style="mix-blend-mode:screen">
<path d="M2227.69 836.964C2099.57 1025.99 1809.13 1372.34 1672.38 1245.56C1540.27 1123.07 908.987 1134.75 578.997 1157.62C608.432 1117.81 714.385 1007.16 902.714 883.053C1091.04 758.945 1864.5 800.615 2227.69 836.964Z" fill="#1A2E30"/>
</g>
<g style="mix-blend-mode:luminosity">
<path d="M1728 1043.22C1579.5 1071.72 1415.92 1055.22 1296.5 1086.5C1166.84 1120.46 971.084 565.332 805.86 421.569C838.285 416.713 939.707 414.515 1086 444.577C1232.3 474.639 1574.96 856.196 1728 1043.22Z" fill="#D9D9D9"/>
</g>
</g>
<defs>
<clipPath id="clip0_141_103">
<rect width="1440" height="1024" fill="white"/>
</clipPath>
</defs>
</svg>
