<svg width="1440" height="1024" viewBox="0 0 1440 1024" fill="none" xmlns="http://www.w3.org/2000/svg">
<g clip-path="url(#clip0_64_2)">
<rect width="1440" height="1024" fill="#CEE0FC"/>
<path d="M138.333 149.249C77.5867 179.303 -30.5333 153.17 -77 136.347V-31H263C246.756 16.5604 199.08 119.195 138.333 149.249Z" fill="#2E4BD2"/>
<path d="M134.7 132.525C79.492 159.79 -18.77 136.082 -61 120.82V-31H248C233.237 12.1476 189.908 105.259 134.7 132.525Z" fill="#041AC7"/>
<path d="M138.333 110.249C77.5867 140.303 -30.5333 114.17 -77 97.3467V-70H263C246.756 -22.4396 199.08 80.1946 138.333 110.249Z" fill="#0003A4"/>
<path d="M1092.71 647.075C1199.69 486.773 1503.13 397.26 1641.49 372.542L1879.08 784.06L1041.51 1267.63C1014 1127.57 985.735 807.378 1092.71 647.075Z" fill="#041AC7"/>
<path d="M1021.44 754.648C1139.06 578.119 1473.03 479.752 1625.3 452.635L1887.19 906.239L965.6 1438.32C935.202 1283.98 903.813 931.177 1021.44 754.648Z" fill="#0003A4"/>
<path d="M1727 710.306C1717.09 710.703 1663.18 733.707 1636.74 745.479C1636.24 745.702 1635.74 745.876 1635.21 746.005C1630.24 747.206 1613.91 750.576 1581.12 756.117C1580.39 756.242 1579.7 756.296 1578.95 756.228C1516.51 750.498 1295.98 547.002 1028 493.306C826.845 479.582 770.059 511.824 766.171 530.685C766.017 531.433 766.046 532.158 766.149 532.915C771.225 570.167 790.794 654.284 830 701.806C879.5 761.806 969 805.306 1103 806.306C1237 807.306 1227.5 756.306 1375.5 759.806C1523.5 763.306 1534 785.306 1610.5 844.306C1661.49 883.629 1694.96 901.158 1710.69 907.07C1714.92 908.663 1719.36 906.426 1720.17 901.972C1721.91 892.442 1721.94 876.019 1714.5 854.306C1709.13 838.631 1700.55 825.52 1692.3 815.733C1686.63 809.009 1690.55 796.722 1699 794.306C1706 792.306 1790.5 727.806 1769 716.306C1747.5 704.806 1739.5 709.806 1727 710.306Z" fill="#3F42F7"/>
<path d="M1494.88 764.14C1461.36 748.48 1403.14 727.656 1303 709.306C1117.43 675.301 846.903 609.674 827.087 559.197C826.032 556.51 824.671 553.815 822.223 552.284C809.313 544.209 793.467 539.446 781.637 536.505C774.446 534.718 767.473 541.35 768.732 548.651L771 561.806L780.5 598.306L793 635.806L802 657.306L812.5 677.806L825 695.806L839 712.306C860 738.306 920.5 779.206 992.5 796.806C1030.26 806.037 1067.06 807.61 1101 805.365C1118.17 805.512 1156.4 804.906 1172 801.306C1187.6 797.706 1223.17 785.37 1239 779.653C1292.21 766.195 1387.12 743.897 1491.16 772.173C1501.69 775.035 1504.77 768.758 1494.88 764.14Z" fill="#0069A4"/>
<path d="M1098.5 792.306C1097.75 802.429 1099.87 831.498 1101.24 847.318C1101.38 848.924 1100.11 850.306 1098.5 850.306C1089.33 850.306 1069.3 849.906 1062.5 848.306C1054 846.306 1040 842.806 1012.5 815.306C990.5 793.306 976.333 735.14 972 708.806C970.366 695.079 967.129 661.256 967.004 633.924C966.999 632.85 966.757 631.723 966.583 630.662C962.556 606.181 1082.17 662.358 1090.5 664.806C1099 667.306 1105.5 710.806 1105.5 724.306C1105.5 737.806 1099.5 778.806 1098.5 792.306Z" fill="#78B0F2"/>
<circle cx="26" cy="26" r="26" transform="matrix(-1 0 0 1 992 536.306)" fill="#D9D9D9"/>
<rect x="682" y="49" width="735" height="89" fill="#D9D9D9"/>
<path d="M954.273 96V117H948.909V70.4545H954.273V87.5455H954.727C955.545 85.7424 956.773 84.3106 958.409 83.25C960.061 82.1742 962.258 81.6364 965 81.6364C967.379 81.6364 969.462 82.1136 971.25 83.0682C973.038 84.0076 974.424 85.4545 975.409 87.4091C976.409 89.3485 976.909 91.8182 976.909 94.8182V117H971.545V95.1818C971.545 92.4091 970.826 90.2652 969.386 88.75C967.962 87.2197 965.985 86.4545 963.455 86.4545C961.697 86.4545 960.121 86.8258 958.727 87.5682C957.348 88.3106 956.258 89.3939 955.455 90.8182C954.667 92.2424 954.273 93.9697 954.273 96ZM1001.36 117.727C997.994 117.727 995.093 116.985 992.653 115.5C990.229 114 988.358 111.909 987.04 109.227C985.737 106.53 985.085 103.394 985.085 99.8182C985.085 96.2424 985.737 93.0909 987.04 90.3636C988.358 87.6212 990.191 85.4848 992.54 83.9545C994.903 82.4091 997.661 81.6364 1000.81 81.6364C1002.63 81.6364 1004.43 81.9394 1006.2 82.5455C1007.97 83.1515 1009.59 84.1364 1011.04 85.5C1012.49 86.8485 1013.65 88.6364 1014.52 90.8636C1015.38 93.0909 1015.81 95.8333 1015.81 99.0909V101.364H988.903V96.7273H1010.36C1010.36 94.7576 1009.96 93 1009.18 91.4545C1008.4 89.9091 1007.3 88.6894 1005.86 87.7955C1004.43 86.9015 1002.75 86.4545 1000.81 86.4545C998.676 86.4545 996.828 86.9848 995.267 88.0455C993.722 89.0909 992.532 90.4545 991.699 92.1364C990.866 93.8182 990.449 95.6212 990.449 97.5455V100.636C990.449 103.273 990.903 105.508 991.812 107.341C992.737 109.159 994.017 110.545 995.653 111.5C997.29 112.439 999.191 112.909 1001.36 112.909C1002.77 112.909 1004.04 112.712 1005.18 112.318C1006.33 111.909 1007.32 111.303 1008.15 110.5C1008.99 109.682 1009.63 108.667 1010.09 107.455L1015.27 108.909C1014.72 110.667 1013.8 112.212 1012.52 113.545C1011.23 114.864 1009.64 115.894 1007.74 116.636C1005.85 117.364 1003.72 117.727 1001.36 117.727ZM1034.24 117.818C1032.03 117.818 1030.02 117.402 1028.22 116.568C1026.42 115.72 1024.99 114.5 1023.93 112.909C1022.87 111.303 1022.34 109.364 1022.34 107.091C1022.34 105.091 1022.73 103.47 1023.52 102.227C1024.3 100.97 1025.36 99.9848 1026.68 99.2727C1027.99 98.5606 1029.45 98.0303 1031.04 97.6818C1032.65 97.3182 1034.26 97.0303 1035.88 96.8182C1038 96.5455 1039.72 96.3409 1041.04 96.2045C1042.37 96.053 1043.34 95.803 1043.95 95.4545C1044.57 95.1061 1044.88 94.5 1044.88 93.6364V93.4545C1044.88 91.2121 1044.27 89.4697 1043.04 88.2273C1041.83 86.9848 1039.99 86.3636 1037.52 86.3636C1034.96 86.3636 1032.95 86.9242 1031.49 88.0455C1030.04 89.1667 1029.02 90.3636 1028.43 91.6364L1023.34 89.8182C1024.24 87.697 1025.46 86.0455 1026.97 84.8636C1028.5 83.6667 1030.17 82.8333 1031.97 82.3636C1033.79 81.8788 1035.58 81.6364 1037.34 81.6364C1038.46 81.6364 1039.74 81.7727 1041.2 82.0455C1042.67 82.303 1044.09 82.8409 1045.45 83.6591C1046.83 84.4773 1047.97 85.7121 1048.88 87.3636C1049.79 89.0152 1050.24 91.2273 1050.24 94V117H1044.88V112.273H1044.61C1044.24 113.03 1043.64 113.841 1042.79 114.705C1041.94 115.568 1040.81 116.303 1039.4 116.909C1037.99 117.515 1036.27 117.818 1034.24 117.818ZM1035.06 113C1037.18 113 1038.97 112.583 1040.43 111.75C1041.9 110.917 1043 109.841 1043.74 108.523C1044.5 107.205 1044.88 105.818 1044.88 104.364V99.4545C1044.65 99.7273 1044.15 99.9773 1043.38 100.205C1042.62 100.417 1041.74 100.606 1040.74 100.773C1039.76 100.924 1038.8 101.061 1037.86 101.182C1036.93 101.288 1036.18 101.379 1035.61 101.455C1034.21 101.636 1032.91 101.932 1031.7 102.341C1030.5 102.735 1029.53 103.333 1028.79 104.136C1028.06 104.924 1027.7 106 1027.7 107.364C1027.7 109.227 1028.39 110.636 1029.77 111.591C1031.16 112.53 1032.93 113 1035.06 113ZM1073.22 117.727C1070.31 117.727 1067.74 116.992 1065.51 115.523C1063.28 114.038 1061.54 111.947 1060.28 109.25C1059.03 106.538 1058.4 103.333 1058.4 99.6364C1058.4 95.9697 1059.03 92.7879 1060.28 90.0909C1061.54 87.3939 1063.29 85.3106 1065.53 83.8409C1067.78 82.3712 1070.37 81.6364 1073.31 81.6364C1075.58 81.6364 1077.38 82.0152 1078.69 82.7727C1080.03 83.5152 1081.04 84.3636 1081.74 85.3182C1082.45 86.2576 1083 87.0303 1083.4 87.6364H1083.85V70.4545H1089.22V117H1084.03V111.636H1083.4C1083 112.273 1082.44 113.076 1081.72 114.045C1080.99 115 1079.95 115.856 1078.6 116.614C1077.25 117.356 1075.46 117.727 1073.22 117.727ZM1073.94 112.909C1076.09 112.909 1077.91 112.348 1079.4 111.227C1080.88 110.091 1082.01 108.523 1082.78 106.523C1083.56 104.508 1083.94 102.182 1083.94 99.5455C1083.94 96.9394 1083.56 94.6591 1082.81 92.7045C1082.05 90.7348 1080.93 89.2045 1079.44 88.1136C1077.96 87.0076 1076.13 86.4545 1073.94 86.4545C1071.67 86.4545 1069.78 87.0379 1068.26 88.2045C1066.76 89.3561 1065.63 90.9242 1064.88 92.9091C1064.13 94.8788 1063.76 97.0909 1063.76 99.5455C1063.76 102.03 1064.14 104.288 1064.9 106.318C1065.67 108.333 1066.81 109.939 1068.31 111.136C1069.82 112.318 1071.7 112.909 1073.94 112.909ZM1114.42 117.727C1111.06 117.727 1108.16 116.985 1105.72 115.5C1103.29 114 1101.42 111.909 1100.1 109.227C1098.8 106.53 1098.15 103.394 1098.15 99.8182C1098.15 96.2424 1098.8 93.0909 1100.1 90.3636C1101.42 87.6212 1103.25 85.4848 1105.6 83.9545C1107.97 82.4091 1110.72 81.6364 1113.88 81.6364C1115.69 81.6364 1117.49 81.9394 1119.26 82.5455C1121.03 83.1515 1122.65 84.1364 1124.1 85.5C1125.56 86.8485 1126.72 88.6364 1127.58 90.8636C1128.44 93.0909 1128.88 95.8333 1128.88 99.0909V101.364H1101.97V96.7273H1123.42C1123.42 94.7576 1123.03 93 1122.24 91.4545C1121.47 89.9091 1120.36 88.6894 1118.92 87.7955C1117.5 86.9015 1115.81 86.4545 1113.88 86.4545C1111.74 86.4545 1109.89 86.9848 1108.33 88.0455C1106.78 89.0909 1105.59 90.4545 1104.76 92.1364C1103.93 93.8182 1103.51 95.6212 1103.51 97.5455V100.636C1103.51 103.273 1103.97 105.508 1104.88 107.341C1105.8 109.159 1107.08 110.545 1108.72 111.5C1110.35 112.439 1112.25 112.909 1114.42 112.909C1115.83 112.909 1117.1 112.712 1118.24 112.318C1119.39 111.909 1120.38 111.303 1121.22 110.5C1122.05 109.682 1122.69 108.667 1123.15 107.455L1128.33 108.909C1127.78 110.667 1126.87 112.212 1125.58 113.545C1124.29 114.864 1122.7 115.894 1120.81 116.636C1118.91 117.364 1116.78 117.727 1114.42 117.727ZM1137.03 117V82.0909H1142.22V87.3636H1142.58C1143.22 85.6364 1144.37 84.2348 1146.03 83.1591C1147.7 82.0833 1149.58 81.5455 1151.67 81.5455C1152.06 81.5455 1152.56 81.553 1153.15 81.5682C1153.74 81.5833 1154.19 81.6061 1154.49 81.6364V87.0909C1154.31 87.0455 1153.89 86.9773 1153.24 86.8864C1152.6 86.7803 1151.93 86.7273 1151.22 86.7273C1149.52 86.7273 1148 87.0833 1146.67 87.7955C1145.35 88.4924 1144.31 89.4621 1143.53 90.7045C1142.78 91.9318 1142.4 93.3333 1142.4 94.9091V117H1137.03Z" fill="black"/>
<rect x="73" y="267" width="539" height="539" fill="#D9D9D9"/>
<path d="M146.091 502.091V506.636H128V502.091H146.091ZM133.273 493.727H138.636V527C138.636 528.515 138.856 529.652 139.295 530.409C139.75 531.152 140.326 531.652 141.023 531.909C141.735 532.152 142.485 532.273 143.273 532.273C143.864 532.273 144.348 532.242 144.727 532.182C145.106 532.106 145.409 532.045 145.636 532L146.727 536.818C146.364 536.955 145.856 537.091 145.205 537.227C144.553 537.379 143.727 537.455 142.727 537.455C141.212 537.455 139.727 537.129 138.273 536.477C136.833 535.826 135.636 534.833 134.682 533.5C133.742 532.167 133.273 530.485 133.273 528.455V493.727ZM168.42 537.727C165.057 537.727 162.155 536.985 159.716 535.5C157.292 534 155.42 531.909 154.102 529.227C152.799 526.53 152.148 523.394 152.148 519.818C152.148 516.242 152.799 513.091 154.102 510.364C155.42 507.621 157.254 505.485 159.602 503.955C161.966 502.409 164.723 501.636 167.875 501.636C169.693 501.636 171.489 501.939 173.261 502.545C175.034 503.152 176.648 504.136 178.102 505.5C179.557 506.848 180.716 508.636 181.58 510.864C182.443 513.091 182.875 515.833 182.875 519.091V521.364H155.966V516.727H177.42C177.42 514.758 177.027 513 176.239 511.455C175.466 509.909 174.36 508.689 172.92 507.795C171.496 506.902 169.814 506.455 167.875 506.455C165.739 506.455 163.89 506.985 162.33 508.045C160.784 509.091 159.595 510.455 158.761 512.136C157.928 513.818 157.511 515.621 157.511 517.545V520.636C157.511 523.273 157.966 525.508 158.875 527.341C159.799 529.159 161.08 530.545 162.716 531.5C164.352 532.439 166.254 532.909 168.42 532.909C169.83 532.909 171.102 532.712 172.239 532.318C173.39 531.909 174.383 531.303 175.216 530.5C176.049 529.682 176.693 528.667 177.148 527.455L182.33 528.909C181.784 530.667 180.867 532.212 179.58 533.545C178.292 534.864 176.701 535.894 174.807 536.636C172.913 537.364 170.784 537.727 168.42 537.727ZM194.097 502.091L202.46 516.364L210.824 502.091H217.006L205.733 519.545L217.006 537H210.824L202.46 523.455L194.097 537H187.915L199.006 519.545L187.915 502.091H194.097ZM239.841 502.091V506.636H221.75V502.091H239.841ZM227.023 493.727H232.386V527C232.386 528.515 232.606 529.652 233.045 530.409C233.5 531.152 234.076 531.652 234.773 531.909C235.485 532.152 236.235 532.273 237.023 532.273C237.614 532.273 238.098 532.242 238.477 532.182C238.856 532.106 239.159 532.045 239.386 532L240.477 536.818C240.114 536.955 239.606 537.091 238.955 537.227C238.303 537.379 237.477 537.455 236.477 537.455C234.962 537.455 233.477 537.129 232.023 536.477C230.583 535.826 229.386 534.833 228.432 533.5C227.492 532.167 227.023 530.485 227.023 528.455V493.727ZM261.716 537.727C258.564 537.727 255.799 536.977 253.42 535.477C251.057 533.977 249.208 531.879 247.875 529.182C246.557 526.485 245.898 523.333 245.898 519.727C245.898 516.091 246.557 512.917 247.875 510.205C249.208 507.492 251.057 505.386 253.42 503.886C255.799 502.386 258.564 501.636 261.716 501.636C264.867 501.636 267.625 502.386 269.989 503.886C272.367 505.386 274.216 507.492 275.534 510.205C276.867 512.917 277.534 516.091 277.534 519.727C277.534 523.333 276.867 526.485 275.534 529.182C274.216 531.879 272.367 533.977 269.989 535.477C267.625 536.977 264.867 537.727 261.716 537.727ZM261.716 532.909C264.11 532.909 266.08 532.295 267.625 531.068C269.17 529.841 270.314 528.227 271.057 526.227C271.799 524.227 272.17 522.061 272.17 519.727C272.17 517.394 271.799 515.22 271.057 513.205C270.314 511.189 269.17 509.561 267.625 508.318C266.08 507.076 264.11 506.455 261.716 506.455C259.322 506.455 257.352 507.076 255.807 508.318C254.261 509.561 253.117 511.189 252.375 513.205C251.633 515.22 251.261 517.394 251.261 519.727C251.261 522.061 251.633 524.227 252.375 526.227C253.117 528.227 254.261 529.841 255.807 531.068C257.352 532.295 259.322 532.909 261.716 532.909ZM303.722 537V502.091H308.903V507.364H309.267C309.903 505.636 311.055 504.235 312.722 503.159C314.388 502.083 316.267 501.545 318.358 501.545C318.752 501.545 319.244 501.553 319.835 501.568C320.426 501.583 320.873 501.606 321.176 501.636V507.091C320.994 507.045 320.578 506.977 319.926 506.886C319.29 506.78 318.616 506.727 317.903 506.727C316.206 506.727 314.691 507.083 313.358 507.795C312.04 508.492 310.994 509.462 310.222 510.705C309.464 511.932 309.085 513.333 309.085 514.909V537H303.722ZM341.108 537.727C337.744 537.727 334.843 536.985 332.403 535.5C329.979 534 328.108 531.909 326.79 529.227C325.487 526.53 324.835 523.394 324.835 519.818C324.835 516.242 325.487 513.091 326.79 510.364C328.108 507.621 329.941 505.485 332.29 503.955C334.653 502.409 337.411 501.636 340.562 501.636C342.381 501.636 344.176 501.939 345.949 502.545C347.722 503.152 349.335 504.136 350.79 505.5C352.244 506.848 353.403 508.636 354.267 510.864C355.131 513.091 355.562 515.833 355.562 519.091V521.364H328.653V516.727H350.108C350.108 514.758 349.714 513 348.926 511.455C348.153 509.909 347.047 508.689 345.608 507.795C344.184 506.902 342.502 506.455 340.562 506.455C338.426 506.455 336.578 506.985 335.017 508.045C333.472 509.091 332.282 510.455 331.449 512.136C330.616 513.818 330.199 515.621 330.199 517.545V520.636C330.199 523.273 330.653 525.508 331.562 527.341C332.487 529.159 333.767 530.545 335.403 531.5C337.04 532.439 338.941 532.909 341.108 532.909C342.517 532.909 343.79 532.712 344.926 532.318C346.078 531.909 347.07 531.303 347.903 530.5C348.737 529.682 349.381 528.667 349.835 527.455L355.017 528.909C354.472 530.667 353.555 532.212 352.267 533.545C350.979 534.864 349.388 535.894 347.494 536.636C345.6 537.364 343.472 537.727 341.108 537.727ZM388.449 509.909L383.631 511.273C383.328 510.47 382.881 509.689 382.29 508.932C381.714 508.159 380.926 507.523 379.926 507.023C378.926 506.523 377.646 506.273 376.085 506.273C373.949 506.273 372.169 506.765 370.744 507.75C369.335 508.72 368.631 509.955 368.631 511.455C368.631 512.788 369.116 513.841 370.085 514.614C371.055 515.386 372.57 516.03 374.631 516.545L379.812 517.818C382.934 518.576 385.259 519.735 386.79 521.295C388.32 522.841 389.085 524.833 389.085 527.273C389.085 529.273 388.509 531.061 387.358 532.636C386.222 534.212 384.631 535.455 382.585 536.364C380.54 537.273 378.161 537.727 375.449 537.727C371.888 537.727 368.941 536.955 366.608 535.409C364.275 533.864 362.797 531.606 362.176 528.636L367.267 527.364C367.752 529.242 368.669 530.652 370.017 531.591C371.381 532.53 373.161 533 375.358 533C377.858 533 379.843 532.47 381.312 531.409C382.797 530.333 383.54 529.045 383.54 527.545C383.54 526.333 383.116 525.318 382.267 524.5C381.419 523.667 380.116 523.045 378.358 522.636L372.54 521.273C369.343 520.515 366.994 519.341 365.494 517.75C364.009 516.144 363.267 514.136 363.267 511.727C363.267 509.758 363.82 508.015 364.926 506.5C366.047 504.985 367.57 503.795 369.494 502.932C371.434 502.068 373.631 501.636 376.085 501.636C379.54 501.636 382.252 502.394 384.222 503.909C386.206 505.424 387.616 507.424 388.449 509.909ZM419.159 522.727V502.091H424.523V537H419.159V531.091H418.795C417.977 532.864 416.705 534.371 414.977 535.614C413.25 536.841 411.068 537.455 408.432 537.455C406.25 537.455 404.311 536.977 402.614 536.023C400.917 535.053 399.583 533.598 398.614 531.659C397.644 529.705 397.159 527.242 397.159 524.273V502.091H402.523V523.909C402.523 526.455 403.235 528.485 404.659 530C406.098 531.515 407.932 532.273 410.159 532.273C411.492 532.273 412.848 531.932 414.227 531.25C415.621 530.568 416.788 529.523 417.727 528.114C418.682 526.705 419.159 524.909 419.159 522.727ZM434.347 537V502.091H439.528V507.545H439.983C440.71 505.682 441.884 504.235 443.506 503.205C445.127 502.159 447.074 501.636 449.347 501.636C451.65 501.636 453.566 502.159 455.097 503.205C456.642 504.235 457.847 505.682 458.71 507.545H459.074C459.968 505.742 461.309 504.311 463.097 503.25C464.884 502.174 467.028 501.636 469.528 501.636C472.65 501.636 475.203 502.614 477.188 504.568C479.172 506.508 480.165 509.53 480.165 513.636V537H474.801V513.636C474.801 511.061 474.097 509.22 472.688 508.114C471.278 507.008 469.619 506.455 467.71 506.455C465.256 506.455 463.354 507.197 462.006 508.682C460.657 510.152 459.983 512.015 459.983 514.273V537H454.528V513.091C454.528 511.106 453.884 509.508 452.597 508.295C451.309 507.068 449.65 506.455 447.619 506.455C446.225 506.455 444.922 506.826 443.71 507.568C442.513 508.311 441.544 509.341 440.801 510.659C440.074 511.962 439.71 513.47 439.71 515.182V537H434.347ZM504.608 537.727C501.244 537.727 498.343 536.985 495.903 535.5C493.479 534 491.608 531.909 490.29 529.227C488.987 526.53 488.335 523.394 488.335 519.818C488.335 516.242 488.987 513.091 490.29 510.364C491.608 507.621 493.441 505.485 495.79 503.955C498.153 502.409 500.911 501.636 504.062 501.636C505.881 501.636 507.676 501.939 509.449 502.545C511.222 503.152 512.835 504.136 514.29 505.5C515.744 506.848 516.903 508.636 517.767 510.864C518.631 513.091 519.062 515.833 519.062 519.091V521.364H492.153V516.727H513.608C513.608 514.758 513.214 513 512.426 511.455C511.653 509.909 510.547 508.689 509.108 507.795C507.684 506.902 506.002 506.455 504.062 506.455C501.926 506.455 500.078 506.985 498.517 508.045C496.972 509.091 495.782 510.455 494.949 512.136C494.116 513.818 493.699 515.621 493.699 517.545V520.636C493.699 523.273 494.153 525.508 495.062 527.341C495.987 529.159 497.267 530.545 498.903 531.5C500.54 532.439 502.441 532.909 504.608 532.909C506.017 532.909 507.29 532.712 508.426 532.318C509.578 531.909 510.57 531.303 511.403 530.5C512.237 529.682 512.881 528.667 513.335 527.455L518.517 528.909C517.972 530.667 517.055 532.212 515.767 533.545C514.479 534.864 512.888 535.894 510.994 536.636C509.1 537.364 506.972 537.727 504.608 537.727ZM532.585 516V537H527.222V502.091H532.403V507.545H532.858C533.676 505.773 534.919 504.348 536.585 503.273C538.252 502.182 540.403 501.636 543.04 501.636C545.403 501.636 547.472 502.121 549.244 503.091C551.017 504.045 552.396 505.5 553.381 507.455C554.366 509.394 554.858 511.848 554.858 514.818V537H549.494V515.182C549.494 512.439 548.782 510.303 547.358 508.773C545.934 507.227 543.979 506.455 541.494 506.455C539.782 506.455 538.252 506.826 536.903 507.568C535.57 508.311 534.517 509.394 533.744 510.818C532.972 512.242 532.585 513.97 532.585 516Z" fill="black"/>
<rect x="450" y="173" width="410" height="63" fill="#D9D9D9"/>
<path d="M581.273 190.727V214H578.545L565.864 195.727H565.636V214H562.818V190.727H565.545L578.273 209.045H578.5V190.727H581.273ZM593.639 214.364C592.063 214.364 590.681 213.989 589.491 213.239C588.31 212.489 587.385 211.439 586.719 210.091C586.06 208.742 585.73 207.167 585.73 205.364C585.73 203.545 586.06 201.958 586.719 200.602C587.385 199.246 588.31 198.193 589.491 197.443C590.681 196.693 592.063 196.318 593.639 196.318C595.215 196.318 596.594 196.693 597.776 197.443C598.965 198.193 599.889 199.246 600.548 200.602C601.215 201.958 601.548 203.545 601.548 205.364C601.548 207.167 601.215 208.742 600.548 210.091C599.889 211.439 598.965 212.489 597.776 213.239C596.594 213.989 595.215 214.364 593.639 214.364ZM593.639 211.955C594.836 211.955 595.821 211.648 596.594 211.034C597.366 210.42 597.938 209.614 598.31 208.614C598.681 207.614 598.866 206.53 598.866 205.364C598.866 204.197 598.681 203.11 598.31 202.102C597.938 201.095 597.366 200.28 596.594 199.659C595.821 199.038 594.836 198.727 593.639 198.727C592.442 198.727 591.457 199.038 590.685 199.659C589.912 200.28 589.34 201.095 588.969 202.102C588.598 203.11 588.412 204.197 588.412 205.364C588.412 206.53 588.598 207.614 588.969 208.614C589.34 209.614 589.912 210.42 590.685 211.034C591.457 211.648 592.442 211.955 593.639 211.955ZM605.642 214V196.545H608.233V199.273H608.46C608.824 198.341 609.411 197.617 610.222 197.102C611.032 196.58 612.006 196.318 613.142 196.318C614.294 196.318 615.252 196.58 616.017 197.102C616.79 197.617 617.392 198.341 617.824 199.273H618.006C618.453 198.371 619.123 197.655 620.017 197.125C620.911 196.587 621.983 196.318 623.233 196.318C624.794 196.318 626.07 196.807 627.062 197.784C628.055 198.754 628.551 200.265 628.551 202.318V214H625.869V202.318C625.869 201.03 625.517 200.11 624.812 199.557C624.108 199.004 623.278 198.727 622.324 198.727C621.097 198.727 620.146 199.098 619.472 199.841C618.797 200.576 618.46 201.508 618.46 202.636V214H615.733V202.045C615.733 201.053 615.411 200.254 614.767 199.648C614.123 199.034 613.294 198.727 612.278 198.727C611.581 198.727 610.93 198.913 610.324 199.284C609.725 199.655 609.241 200.17 608.869 200.83C608.506 201.481 608.324 202.235 608.324 203.091V214H605.642ZM633.818 214V190.727H636.5V199.318H636.727C636.924 199.015 637.197 198.629 637.545 198.159C637.902 197.682 638.409 197.258 639.068 196.886C639.735 196.508 640.636 196.318 641.773 196.318C643.242 196.318 644.538 196.686 645.659 197.42C646.78 198.155 647.655 199.197 648.284 200.545C648.913 201.894 649.227 203.485 649.227 205.318C649.227 207.167 648.913 208.769 648.284 210.125C647.655 211.473 646.784 212.519 645.67 213.261C644.557 213.996 643.273 214.364 641.818 214.364C640.697 214.364 639.799 214.178 639.125 213.807C638.451 213.428 637.932 213 637.568 212.523C637.205 212.038 636.924 211.636 636.727 211.318H636.409V214H633.818ZM636.455 205.273C636.455 206.591 636.648 207.754 637.034 208.761C637.42 209.761 637.985 210.545 638.727 211.114C639.47 211.674 640.379 211.955 641.455 211.955C642.576 211.955 643.511 211.659 644.261 211.068C645.019 210.47 645.587 209.667 645.966 208.659C646.352 207.644 646.545 206.515 646.545 205.273C646.545 204.045 646.356 202.939 645.977 201.955C645.606 200.962 645.042 200.178 644.284 199.602C643.534 199.019 642.591 198.727 641.455 198.727C640.364 198.727 639.447 199.004 638.705 199.557C637.962 200.102 637.402 200.867 637.023 201.852C636.644 202.83 636.455 203.97 636.455 205.273ZM653.33 214V196.545H655.92V199.182H656.102C656.42 198.318 656.996 197.617 657.83 197.08C658.663 196.542 659.602 196.273 660.648 196.273C660.845 196.273 661.091 196.277 661.386 196.284C661.682 196.292 661.905 196.303 662.057 196.318V199.045C661.966 199.023 661.758 198.989 661.432 198.943C661.114 198.89 660.777 198.864 660.42 198.864C659.572 198.864 658.814 199.042 658.148 199.398C657.489 199.746 656.966 200.231 656.58 200.852C656.201 201.466 656.011 202.167 656.011 202.955V214H653.33ZM672.023 214.364C670.341 214.364 668.89 213.992 667.67 213.25C666.458 212.5 665.523 211.455 664.864 210.114C664.212 208.765 663.886 207.197 663.886 205.409C663.886 203.621 664.212 202.045 664.864 200.682C665.523 199.311 666.439 198.242 667.614 197.477C668.795 196.705 670.174 196.318 671.75 196.318C672.659 196.318 673.557 196.47 674.443 196.773C675.33 197.076 676.136 197.568 676.864 198.25C677.591 198.924 678.17 199.818 678.602 200.932C679.034 202.045 679.25 203.417 679.25 205.045V206.182H665.795V203.864H676.523C676.523 202.879 676.326 202 675.932 201.227C675.545 200.455 674.992 199.845 674.273 199.398C673.561 198.951 672.72 198.727 671.75 198.727C670.682 198.727 669.758 198.992 668.977 199.523C668.205 200.045 667.61 200.727 667.193 201.568C666.777 202.409 666.568 203.311 666.568 204.273V205.818C666.568 207.136 666.795 208.254 667.25 209.17C667.712 210.08 668.352 210.773 669.17 211.25C669.989 211.72 670.939 211.955 672.023 211.955C672.727 211.955 673.364 211.856 673.932 211.659C674.508 211.455 675.004 211.152 675.42 210.75C675.837 210.341 676.159 209.833 676.386 209.227L678.977 209.955C678.705 210.833 678.246 211.606 677.602 212.273C676.958 212.932 676.163 213.447 675.216 213.818C674.269 214.182 673.205 214.364 672.023 214.364ZM692.693 214V190.727H700.557C702.383 190.727 703.875 191.057 705.034 191.716C706.201 192.367 707.064 193.25 707.625 194.364C708.186 195.477 708.466 196.72 708.466 198.091C708.466 199.462 708.186 200.708 707.625 201.83C707.072 202.951 706.216 203.845 705.057 204.511C703.898 205.17 702.413 205.5 700.602 205.5H694.966V203H700.511C701.761 203 702.765 202.784 703.523 202.352C704.28 201.92 704.83 201.337 705.17 200.602C705.519 199.86 705.693 199.023 705.693 198.091C705.693 197.159 705.519 196.326 705.17 195.591C704.83 194.856 704.277 194.28 703.511 193.864C702.746 193.439 701.731 193.227 700.466 193.227H695.511V214H692.693Z" fill="black"/>
<rect x="663" y="299" width="344" height="93" rx="40" fill="url(#paint0_radial_64_2)"/>
<rect x="1058" y="299" width="344" height="93" rx="40" fill="url(#paint1_radial_64_2)"/>
<path d="M679.636 464V417.455H695.909C699.152 417.455 701.826 418.015 703.932 419.136C706.038 420.242 707.606 421.735 708.636 423.614C709.667 425.477 710.182 427.545 710.182 429.818C710.182 431.818 709.826 433.47 709.114 434.773C708.417 436.076 707.492 437.106 706.341 437.864C705.205 438.621 703.97 439.182 702.636 439.545V440C704.061 440.091 705.492 440.591 706.932 441.5C708.371 442.409 709.576 443.712 710.545 445.409C711.515 447.106 712 449.182 712 451.636C712 453.97 711.47 456.068 710.409 457.932C709.348 459.795 707.674 461.273 705.386 462.364C703.098 463.455 700.121 464 696.455 464H679.636ZM685.273 459H696.455C700.136 459 702.75 458.288 704.295 456.864C705.856 455.424 706.636 453.682 706.636 451.636C706.636 450.061 706.235 448.606 705.432 447.273C704.629 445.924 703.485 444.848 702 444.045C700.515 443.227 698.758 442.818 696.727 442.818H685.273V459ZM685.273 437.909H695.727C697.424 437.909 698.955 437.576 700.318 436.909C701.697 436.242 702.788 435.303 703.591 434.091C704.409 432.879 704.818 431.455 704.818 429.818C704.818 427.773 704.106 426.038 702.682 424.614C701.258 423.174 699 422.455 695.909 422.455H685.273V437.909ZM760.534 440.727C760.534 445.636 759.648 449.879 757.875 453.455C756.102 457.03 753.67 459.788 750.58 461.727C747.489 463.667 743.958 464.636 739.989 464.636C736.019 464.636 732.489 463.667 729.398 461.727C726.307 459.788 723.875 457.03 722.102 453.455C720.33 449.879 719.443 445.636 719.443 440.727C719.443 435.818 720.33 431.576 722.102 428C723.875 424.424 726.307 421.667 729.398 419.727C732.489 417.788 736.019 416.818 739.989 416.818C743.958 416.818 747.489 417.788 750.58 419.727C753.67 421.667 756.102 424.424 757.875 428C759.648 431.576 760.534 435.818 760.534 440.727ZM755.08 440.727C755.08 436.697 754.405 433.295 753.057 430.523C751.723 427.75 749.913 425.652 747.625 424.227C745.352 422.803 742.807 422.091 739.989 422.091C737.17 422.091 734.617 422.803 732.33 424.227C730.057 425.652 728.246 427.75 726.898 430.523C725.564 433.295 724.898 436.697 724.898 440.727C724.898 444.758 725.564 448.159 726.898 450.932C728.246 453.705 730.057 455.803 732.33 457.227C734.617 458.652 737.17 459.364 739.989 459.364C742.807 459.364 745.352 458.652 747.625 457.227C749.913 455.803 751.723 453.705 753.057 450.932C754.405 448.159 755.08 444.758 755.08 440.727ZM765.528 422.455V417.455H800.438V422.455H785.801V464H780.165V422.455H765.528ZM846.472 440.727C846.472 445.636 845.585 449.879 843.812 453.455C842.04 457.03 839.608 459.788 836.517 461.727C833.426 463.667 829.896 464.636 825.926 464.636C821.956 464.636 818.426 463.667 815.335 461.727C812.244 459.788 809.813 457.03 808.04 453.455C806.267 449.879 805.381 445.636 805.381 440.727C805.381 435.818 806.267 431.576 808.04 428C809.813 424.424 812.244 421.667 815.335 419.727C818.426 417.788 821.956 416.818 825.926 416.818C829.896 416.818 833.426 417.788 836.517 419.727C839.608 421.667 842.04 424.424 843.812 428C845.585 431.576 846.472 435.818 846.472 440.727ZM841.017 440.727C841.017 436.697 840.343 433.295 838.994 430.523C837.661 427.75 835.85 425.652 833.562 424.227C831.29 422.803 828.744 422.091 825.926 422.091C823.108 422.091 820.555 422.803 818.267 424.227C815.994 425.652 814.184 427.75 812.835 430.523C811.502 433.295 810.835 436.697 810.835 440.727C810.835 444.758 811.502 448.159 812.835 450.932C814.184 453.705 815.994 455.803 818.267 457.227C820.555 458.652 823.108 459.364 825.926 459.364C828.744 459.364 831.29 458.652 833.562 457.227C835.85 455.803 837.661 453.705 838.994 450.932C840.343 448.159 841.017 444.758 841.017 440.727ZM892.858 417.455V464H887.403L862.04 427.455H861.585V464H855.949V417.455H861.403L886.858 454.091H887.312V417.455H892.858ZM904.136 464V417.455H932.227V422.455H909.773V438.182H930.773V443.182H909.773V459H932.591V464H904.136ZM967.841 429.091C967.568 426.788 966.462 425 964.523 423.727C962.583 422.455 960.205 421.818 957.386 421.818C955.326 421.818 953.523 422.152 951.977 422.818C950.447 423.485 949.25 424.402 948.386 425.568C947.538 426.735 947.114 428.061 947.114 429.545C947.114 430.788 947.409 431.856 948 432.75C948.606 433.629 949.379 434.364 950.318 434.955C951.258 435.53 952.242 436.008 953.273 436.386C954.303 436.75 955.25 437.045 956.114 437.273L960.841 438.545C962.053 438.864 963.402 439.303 964.886 439.864C966.386 440.424 967.818 441.189 969.182 442.159C970.561 443.114 971.697 444.341 972.591 445.841C973.485 447.341 973.932 449.182 973.932 451.364C973.932 453.879 973.273 456.152 971.955 458.182C970.652 460.212 968.742 461.826 966.227 463.023C963.727 464.22 960.689 464.818 957.114 464.818C953.78 464.818 950.894 464.28 948.455 463.205C946.03 462.129 944.121 460.629 942.727 458.705C941.348 456.78 940.568 454.545 940.386 452H946.205C946.356 453.758 946.947 455.212 947.977 456.364C949.023 457.5 950.341 458.348 951.932 458.909C953.538 459.455 955.265 459.727 957.114 459.727C959.265 459.727 961.197 459.379 962.909 458.682C964.621 457.97 965.977 456.985 966.977 455.727C967.977 454.455 968.477 452.97 968.477 451.273C968.477 449.727 968.045 448.47 967.182 447.5C966.318 446.53 965.182 445.742 963.773 445.136C962.364 444.53 960.841 444 959.205 443.545L953.477 441.909C949.841 440.864 946.962 439.371 944.841 437.432C942.72 435.492 941.659 432.955 941.659 429.818C941.659 427.212 942.364 424.939 943.773 423C945.197 421.045 947.106 419.53 949.5 418.455C951.909 417.364 954.598 416.818 957.568 416.818C960.568 416.818 963.235 417.356 965.568 418.432C967.902 419.492 969.75 420.947 971.114 422.795C972.492 424.644 973.22 426.742 973.295 429.091H967.841Z" fill="black"/>
<path d="M1083.64 280V233.455H1099.91C1103.15 233.455 1105.83 234.015 1107.93 235.136C1110.04 236.242 1111.61 237.735 1112.64 239.614C1113.67 241.477 1114.18 243.545 1114.18 245.818C1114.18 247.818 1113.83 249.47 1113.11 250.773C1112.42 252.076 1111.49 253.106 1110.34 253.864C1109.2 254.621 1107.97 255.182 1106.64 255.545V256C1108.06 256.091 1109.49 256.591 1110.93 257.5C1112.37 258.409 1113.58 259.712 1114.55 261.409C1115.52 263.106 1116 265.182 1116 267.636C1116 269.97 1115.47 272.068 1114.41 273.932C1113.35 275.795 1111.67 277.273 1109.39 278.364C1107.1 279.455 1104.12 280 1100.45 280H1083.64ZM1089.27 275H1100.45C1104.14 275 1106.75 274.288 1108.3 272.864C1109.86 271.424 1110.64 269.682 1110.64 267.636C1110.64 266.061 1110.23 264.606 1109.43 263.273C1108.63 261.924 1107.48 260.848 1106 260.045C1104.52 259.227 1102.76 258.818 1100.73 258.818H1089.27V275ZM1089.27 253.909H1099.73C1101.42 253.909 1102.95 253.576 1104.32 252.909C1105.7 252.242 1106.79 251.303 1107.59 250.091C1108.41 248.879 1108.82 247.455 1108.82 245.818C1108.82 243.773 1108.11 242.038 1106.68 240.614C1105.26 239.174 1103 238.455 1099.91 238.455H1089.27V253.909ZM1164.53 256.727C1164.53 261.636 1163.65 265.879 1161.88 269.455C1160.1 273.03 1157.67 275.788 1154.58 277.727C1151.49 279.667 1147.96 280.636 1143.99 280.636C1140.02 280.636 1136.49 279.667 1133.4 277.727C1130.31 275.788 1127.88 273.03 1126.1 269.455C1124.33 265.879 1123.44 261.636 1123.44 256.727C1123.44 251.818 1124.33 247.576 1126.1 244C1127.88 240.424 1130.31 237.667 1133.4 235.727C1136.49 233.788 1140.02 232.818 1143.99 232.818C1147.96 232.818 1151.49 233.788 1154.58 235.727C1157.67 237.667 1160.1 240.424 1161.88 244C1163.65 247.576 1164.53 251.818 1164.53 256.727ZM1159.08 256.727C1159.08 252.697 1158.41 249.295 1157.06 246.523C1155.72 243.75 1153.91 241.652 1151.62 240.227C1149.35 238.803 1146.81 238.091 1143.99 238.091C1141.17 238.091 1138.62 238.803 1136.33 240.227C1134.06 241.652 1132.25 243.75 1130.9 246.523C1129.56 249.295 1128.9 252.697 1128.9 256.727C1128.9 260.758 1129.56 264.159 1130.9 266.932C1132.25 269.705 1134.06 271.803 1136.33 273.227C1138.62 274.652 1141.17 275.364 1143.99 275.364C1146.81 275.364 1149.35 274.652 1151.62 273.227C1153.91 271.803 1155.72 269.705 1157.06 266.932C1158.41 264.159 1159.08 260.758 1159.08 256.727ZM1169.53 238.455V233.455H1204.44V238.455H1189.8V280H1184.16V238.455H1169.53ZM1250.47 256.727C1250.47 261.636 1249.59 265.879 1247.81 269.455C1246.04 273.03 1243.61 275.788 1240.52 277.727C1237.43 279.667 1233.9 280.636 1229.93 280.636C1225.96 280.636 1222.43 279.667 1219.34 277.727C1216.24 275.788 1213.81 273.03 1212.04 269.455C1210.27 265.879 1209.38 261.636 1209.38 256.727C1209.38 251.818 1210.27 247.576 1212.04 244C1213.81 240.424 1216.24 237.667 1219.34 235.727C1222.43 233.788 1225.96 232.818 1229.93 232.818C1233.9 232.818 1237.43 233.788 1240.52 235.727C1243.61 237.667 1246.04 240.424 1247.81 244C1249.59 247.576 1250.47 251.818 1250.47 256.727ZM1245.02 256.727C1245.02 252.697 1244.34 249.295 1242.99 246.523C1241.66 243.75 1239.85 241.652 1237.56 240.227C1235.29 238.803 1232.74 238.091 1229.93 238.091C1227.11 238.091 1224.55 238.803 1222.27 240.227C1219.99 241.652 1218.18 243.75 1216.84 246.523C1215.5 249.295 1214.84 252.697 1214.84 256.727C1214.84 260.758 1215.5 264.159 1216.84 266.932C1218.18 269.705 1219.99 271.803 1222.27 273.227C1224.55 274.652 1227.11 275.364 1229.93 275.364C1232.74 275.364 1235.29 274.652 1237.56 273.227C1239.85 271.803 1241.66 269.705 1242.99 266.932C1244.34 264.159 1245.02 260.758 1245.02 256.727ZM1296.86 233.455V280H1291.4L1266.04 243.455H1265.59V280H1259.95V233.455H1265.4L1290.86 270.091H1291.31V233.455H1296.86ZM1308.14 280V233.455H1336.23V238.455H1313.77V254.182H1334.77V259.182H1313.77V275H1336.59V280H1308.14ZM1371.84 245.091C1371.57 242.788 1370.46 241 1368.52 239.727C1366.58 238.455 1364.2 237.818 1361.39 237.818C1359.33 237.818 1357.52 238.152 1355.98 238.818C1354.45 239.485 1353.25 240.402 1352.39 241.568C1351.54 242.735 1351.11 244.061 1351.11 245.545C1351.11 246.788 1351.41 247.856 1352 248.75C1352.61 249.629 1353.38 250.364 1354.32 250.955C1355.26 251.53 1356.24 252.008 1357.27 252.386C1358.3 252.75 1359.25 253.045 1360.11 253.273L1364.84 254.545C1366.05 254.864 1367.4 255.303 1368.89 255.864C1370.39 256.424 1371.82 257.189 1373.18 258.159C1374.56 259.114 1375.7 260.341 1376.59 261.841C1377.48 263.341 1377.93 265.182 1377.93 267.364C1377.93 269.879 1377.27 272.152 1375.95 274.182C1374.65 276.212 1372.74 277.826 1370.23 279.023C1367.73 280.22 1364.69 280.818 1361.11 280.818C1357.78 280.818 1354.89 280.28 1352.45 279.205C1350.03 278.129 1348.12 276.629 1346.73 274.705C1345.35 272.78 1344.57 270.545 1344.39 268H1350.2C1350.36 269.758 1350.95 271.212 1351.98 272.364C1353.02 273.5 1354.34 274.348 1355.93 274.909C1357.54 275.455 1359.27 275.727 1361.11 275.727C1363.27 275.727 1365.2 275.379 1366.91 274.682C1368.62 273.97 1369.98 272.985 1370.98 271.727C1371.98 270.455 1372.48 268.97 1372.48 267.273C1372.48 265.727 1372.05 264.47 1371.18 263.5C1370.32 262.53 1369.18 261.742 1367.77 261.136C1366.36 260.53 1364.84 260 1363.2 259.545L1357.48 257.909C1353.84 256.864 1350.96 255.371 1348.84 253.432C1346.72 251.492 1345.66 248.955 1345.66 245.818C1345.66 243.212 1346.36 240.939 1347.77 239C1349.2 237.045 1351.11 235.53 1353.5 234.455C1355.91 233.364 1358.6 232.818 1361.57 232.818C1364.57 232.818 1367.23 233.356 1369.57 234.432C1371.9 235.492 1373.75 236.947 1375.11 238.795C1376.49 240.644 1377.22 242.742 1377.3 245.091H1371.84Z" fill="black"/>
</g>
<defs>
<radialGradient id="paint0_radial_64_2" cx="0" cy="0" r="1" gradientUnits="userSpaceOnUse" gradientTransform="translate(671.5 383.5) scale(495 1830.97)">
<stop stop-color="#DEB1B1"/>
<stop offset="1" stop-color="#7AA7FF"/>
</radialGradient>
<radialGradient id="paint1_radial_64_2" cx="0" cy="0" r="1" gradientUnits="userSpaceOnUse" gradientTransform="translate(1037.5 392) scale(398.5 1474.02)">
<stop stop-color="#9D5FED"/>
<stop offset="1" stop-color="#EB6B6B"/>
</radialGradient>
<clipPath id="clip0_64_2">
<rect width="1440" height="1024" fill="white"/>
</clipPath>
</defs>
</svg>
