<svg width="61" height="102" viewBox="0 0 61 102" fill="none" xmlns="http://www.w3.org/2000/svg">
<path d="M32.6868 0.162323V24.5623L-1.90735e-05 24.5623C-1.90735e-05 11.0866 10.9242 0.162323 24.4 0.162323L32.6868 0.162323Z" fill="#110F1E"/>
<path d="M32.6868 101.215V76.8151H4.58582e-05C4.58582e-05 90.2909 10.9243 101.215 24.4001 101.215H32.6868Z" fill="#110F1E"/>
<path d="M0 74.0529H11.7396L11.7396 41.5963C5.25601 41.5963 0 46.8523 0 53.3359L0 74.0529Z" fill="white"/>
<path d="M13.8113 41.5963L13.8113 53.3359L34.5283 53.3359C34.5283 46.8523 29.2723 41.5963 22.7887 41.5963L13.8113 41.5963Z" fill="#110F1E"/>
<path d="M36.6 68.5283H61V76.8151C61 90.2908 50.0758 101.215 36.6 101.215V68.5283Z" fill="white"/>
<path d="M36.6 34H61V66.6868H36.6V34Z" fill="#110F1E"/>
<path d="M36.6 32.8491H61V24.5623C61 11.0865 50.0758 0.162273 36.6 0.162273L36.6 32.8491Z" fill="white"/>
</svg>
