<svg width="511" height="847" viewBox="0 0 511 847" fill="none" xmlns="http://www.w3.org/2000/svg">
<path d="M273.819 0.000366211V204.4L6.10352e-05 204.4V149.5C6.10352e-05 66.9338 66.9335 0.000366211 149.5 0.000366211L273.819 0.000366211Z" fill="#A34C4C"/>
<path d="M273.819 846.524V642.124H0.000246265V697.024C0.000246265 779.591 66.9336 846.524 149.5 846.524H273.819Z" fill="#6A59D2"/>
<path d="M0 618.985H98.3433L98.3433 347.094V347.094C44.0298 347.094 0 391.124 0 445.438L0 618.985Z" fill="#6A59D2"/>
<path d="M115.698 347.094L115.698 445.437L289.245 445.437V445.437C289.245 391.124 245.215 347.094 190.902 347.094L115.698 347.094Z" fill="#6A59D2"/>
<path d="M306.6 572.705H511V725.024C511 792.127 456.602 846.524 389.5 846.524H306.6V572.705Z" fill="#577DDD"/>
<path d="M306.6 283.46H511V557.279H306.6V283.46Z" fill="#577DDD"/>
<path d="M306.6 273.819H511V121.5C511 54.3973 456.603 -0.00012207 389.5 -0.00012207H306.6L306.6 273.819Z" fill="#D23030"/>
</svg>
